<svg version="1.1" id="Layer_1" xmlns="http://www.w3.org/2000/svg" xmlns:xlink="http://www.w3.org/1999/xlink" x="0px" y="0px"
	 width="100%" viewBox="0 0 5542 7126" enable-background="new 0 0 5542 7126" xml:space="preserve">
<path fill="#E79F46" opacity="1.000000" stroke="none" 
	d="
M4.000000,6836.000000 
	C4.000000,4658.526855 4.000000,2481.053955 5.021024,301.029602 
	C10.070799,295.642883 10.507156,291.532898 10.421640,285.481018 
	C26.675983,150.440414 128.348358,37.975529 262.858673,11.028843 
	C276.494568,8.297145 290.282593,6.324758 304.000000,4.000000 
	C1953.473022,4.000000 3602.946045,4.000000 5255.783203,4.142737 
	C5268.933105,5.882622 5278.801270,7.086002 5288.490234,9.136696 
	C5409.316895,34.710739 5491.128418,105.651123 5534.098145,221.281784 
	C5539.627930,236.161911 5543.977051,251.574295 5544.308594,269.218018 
	C5544.089844,276.784271 5543.319336,283.016449 5548.000000,288.000000 
	C5548.000000,2473.472900 5548.000000,4658.945801 5547.998047,6847.841309 
	C5546.763184,6857.050293 5545.370605,6862.809082 5544.340332,6868.631348 
	C5543.183594,6875.166504 5542.862305,6881.883789 5541.304688,6888.309570 
	C5513.208496,7004.242188 5420.070312,7097.258301 5299.540039,7123.670410 
	C5293.045410,7125.093750 5286.592773,7126.709961 5278.566406,7128.076172 
	C5270.007812,7129.276855 5263.003906,7130.638672 5256.000000,7132.000000 
	C3603.860352,7132.000000 1951.720703,7132.000000 296.261902,7131.998047 
	C283.325928,7129.458008 273.800415,7126.482910 264.077667,7124.452148 
	C194.127792,7109.837891 135.317032,7075.991211 87.960762,7022.499512 
	C43.924397,6972.759277 18.683693,6914.500977 10.379839,6847.476074 
	C10.311872,6841.520508 8.823526,6837.689453 4.000000,6836.000000 
M1566.798096,757.542786 
	C1567.398438,759.669678 1567.998901,761.796509 1569.029297,766.856873 
	C1569.581787,768.779236 1570.115601,770.707214 1570.689331,772.623169 
	C1592.033081,843.896240 1638.907227,888.513123 1711.144043,905.913940 
	C1729.928833,910.438843 1749.379028,910.883057 1768.755859,910.881531 
	C2438.694092,910.829712 3108.632324,910.838501 3778.570557,910.838135 
	C3785.903320,910.838135 3793.263184,911.237488 3800.562744,910.744202 
	C3815.172363,909.757141 3830.025391,909.653015 3844.293945,906.781616 
	C3932.795166,888.971863 3992.540283,815.823547 3994.616943,728.942871 
	C3996.677979,642.702698 3940.803467,572.298767 3865.847412,548.296509 
	C3845.338867,541.729370 3824.307373,539.618896 3802.795654,539.626587 
	C3417.497803,539.763916 3032.199951,539.726501 2646.902100,539.726624 
	C2349.596191,539.726685 2052.290283,539.807556 1754.984497,539.584229 
	C1729.264648,539.564941 1704.496460,543.357483 1680.733521,552.866638 
	C1593.335205,587.840942 1551.777222,679.302368 1566.798096,757.542786 
M412.009125,3498.000000 
	C412.009155,4417.316895 412.020721,5336.634277 411.958191,6255.951172 
	C411.956146,6286.077637 415.295746,6315.856445 422.505920,6344.950684 
	C437.876465,6406.973145 466.975708,6461.376465 512.568420,6507.085938 
	C538.785156,6533.368652 567.839417,6555.049805 600.484558,6572.188965 
	C652.889221,6599.701172 709.221680,6611.844238 767.955811,6611.851562 
	C2107.938232,6612.019531 3447.920898,6612.003906 4787.903320,6611.773926 
	C4809.111816,6611.770508 4830.571777,6610.179199 4851.474609,6606.692383 
	C4895.068359,6599.420410 4936.819336,6586.575684 4974.931641,6562.862305 
	C5010.306152,6540.852539 5042.465332,6515.844238 5068.262207,6482.604492 
	C5089.652832,6455.043457 5108.479492,6426.316895 5121.056152,6393.664062 
	C5135.786621,6355.415039 5145.868164,6316.307129 5144.091309,6274.859375 
	C5143.806152,6268.205566 5144.058105,6261.528320 5144.058105,6254.861816 
	C5144.058105,4784.880859 5144.058594,3314.900146 5144.056152,1844.919312 
	C5144.056152,1830.919556 5144.077637,1816.919312 5143.977051,1802.920166 
	C5143.938965,1797.594238 5144.116211,1792.186035 5143.287109,1786.959473 
	C5138.042480,1753.878662 5128.904785,1721.739380 5115.304688,1691.256348 
	C5091.789062,1638.548096 5056.310059,1594.810303 5010.283203,1560.017334 
	C4947.153320,1512.295776 4876.153809,1487.900146 4796.590332,1487.907715 
	C3451.941406,1488.036743 2107.292236,1487.999878 762.643250,1488.001099 
	C754.643372,1488.001099 746.641235,1487.907471 738.644470,1488.069336 
	C733.991272,1488.163574 729.271057,1488.258911 724.710999,1489.078125 
	C702.442078,1493.077759 680.245667,1497.118652 658.325928,1503.159302 
	C621.758484,1513.236084 588.931763,1530.593262 558.484253,1552.337280 
	C536.924377,1567.734131 517.487915,1585.603882 499.424622,1605.548950 
	C471.545074,1636.332764 451.853516,1671.462646 436.608551,1709.218384 
	C418.973022,1752.894653 411.988190,1798.917725 411.990662,1846.021484 
	C412.019470,2395.347656 412.009186,2944.673828 412.009125,3498.000000 
z"/>
<path fill="#FFFEFD" opacity="1.000000" stroke="none" 
	d="
M10.229267,6848.784668 
	C18.683693,6914.500977 43.924397,6972.759277 87.960762,7022.499512 
	C135.317032,7075.991211 194.127792,7109.837891 264.077667,7124.452148 
	C273.800415,7126.482910 283.325928,7129.458008 294.471375,7131.998047 
	C198.963242,7132.000000 101.926483,7132.000000 4.000000,7132.000000 
	C4.000000,7038.584961 4.000000,6945.166992 5.037065,6850.032227 
	C7.459176,6848.472168 8.844221,6848.628418 10.229267,6848.784668 
z"/>
<path fill="#FFFEFD" opacity="1.000000" stroke="none" 
	d="
M302.125366,4.000000 
	C290.282593,6.324758 276.494568,8.297145 262.858673,11.028843 
	C128.348358,37.975529 26.675983,150.440414 9.393847,285.491028 
	C6.679074,287.422974 5.339539,287.711487 4.000002,288.000000 
	C4.000000,193.617859 4.000000,99.235733 4.000000,4.000000 
	C102.748604,4.000000 201.499664,4.000000 302.125366,4.000000 
z"/>
<path fill="#FFFEFD" opacity="1.000000" stroke="none" 
	d="
M5280.120605,7128.236328 
	C5286.592773,7126.709961 5293.045410,7125.093750 5299.540039,7123.670410 
	C5420.070312,7097.258301 5513.208496,7004.242188 5541.304688,6888.309570 
	C5542.862305,6881.883789 5543.183594,6875.166504 5544.340332,6868.631348 
	C5545.370605,6862.809082 5546.763184,6857.050293 5547.998047,6849.631836 
	C5548.000000,6942.365723 5548.000000,7036.730957 5548.000000,7132.000000 
	C5459.918457,7132.000000 5371.833496,7132.000000 5281.908691,7131.059570 
	C5280.068359,7130.118652 5280.120605,7128.236328 5280.120605,7128.236328 
z"/>
<path fill="#FFFEFD" opacity="1.000000" stroke="none" 
	d="
M5544.571777,267.697449 
	C5543.977051,251.574295 5539.627930,236.161911 5534.098145,221.281784 
	C5491.128418,105.651123 5409.316895,34.710739 5288.490234,9.136696 
	C5278.801270,7.086002 5268.933105,5.882622 5257.574219,4.142737 
	C5353.025879,4.000000 5450.052246,4.000000 5548.000000,4.000000 
	C5548.000000,90.748070 5548.000000,177.499405 5547.150391,265.969543 
	C5546.300293,267.688354 5544.571777,267.697449 5544.571777,267.697449 
z"/>
<path fill="#FADBB9" opacity="1.000000" stroke="none" 
	d="
M4.000002,289.500000 
	C5.339539,287.711487 6.679074,287.422974 9.046403,287.124451 
	C10.507156,291.532898 10.070799,295.642883 5.021024,299.239075 
	C4.000000,297.000000 4.000000,294.000000 4.000002,289.500000 
z"/>
<path fill="#FADBB9" opacity="1.000000" stroke="none" 
	d="
M10.379840,6847.476074 
	C8.844221,6848.628418 7.459176,6848.472168 5.037065,6848.158203 
	C4.000000,6845.000000 4.000000,6842.000000 4.000000,6837.500000 
	C8.823526,6837.689453 10.311872,6841.520508 10.379840,6847.476074 
z"/>
<path fill="#FADBB9" opacity="1.000000" stroke="none" 
	d="
M5278.566406,7128.076172 
	C5280.120605,7128.236328 5280.068359,7130.118652 5280.034180,7131.059570 
	C5273.142578,7132.000000 5266.285156,7132.000000 5257.713867,7132.000000 
	C5263.003906,7130.638672 5270.007812,7129.276855 5278.566406,7128.076172 
z"/>
<path fill="#FADBB9" opacity="1.000000" stroke="none" 
	d="
M5544.308594,269.218018 
	C5544.571777,267.697449 5546.300293,267.688354 5547.150391,267.844177 
	C5548.000000,273.555573 5548.000000,279.111115 5548.000000,286.333344 
	C5543.319336,283.016449 5544.089844,276.784271 5544.308594,269.218018 
z"/>
<path fill="#E49532" opacity="1.000000" stroke="none" 
	d="
M412.009155,3496.000000 
	C412.009186,2944.673828 412.019470,2395.347656 411.990662,1846.021484 
	C411.988190,1798.917725 418.973022,1752.894653 436.608551,1709.218384 
	C451.853516,1671.462646 471.545074,1636.332764 499.424622,1605.548950 
	C517.487915,1585.603882 536.924377,1567.734131 558.484253,1552.337280 
	C588.931763,1530.593262 621.758484,1513.236084 658.325928,1503.159302 
	C680.245667,1497.118652 702.442078,1493.077759 724.710999,1489.078125 
	C729.271057,1488.258911 733.991272,1488.163574 738.644470,1488.069336 
	C746.641235,1487.907471 754.643372,1488.001099 762.643250,1488.001099 
	C2107.292236,1487.999878 3451.941406,1488.036743 4796.590332,1487.907715 
	C4876.153809,1487.900146 4947.153320,1512.295776 5010.283203,1560.017334 
	C5056.310059,1594.810303 5091.789062,1638.548096 5115.304688,1691.256348 
	C5128.904785,1721.739380 5138.042480,1753.878662 5143.287109,1786.959473 
	C5144.116211,1792.186035 5143.938965,1797.594238 5143.977051,1802.920166 
	C5144.077637,1816.919312 5144.056152,1830.919556 5144.056152,1844.919312 
	C5144.058594,3314.900146 5144.058105,4784.880859 5144.058105,6254.861816 
	C5144.058105,6261.528320 5143.806152,6268.205566 5144.091309,6274.859375 
	C5145.868164,6316.307129 5135.786621,6355.415039 5121.056152,6393.664062 
	C5108.479492,6426.316895 5089.652832,6455.043457 5068.262207,6482.604492 
	C5042.465332,6515.844238 5010.306152,6540.852539 4974.931641,6562.862305 
	C4936.819336,6586.575684 4895.068359,6599.420410 4851.474609,6606.692383 
	C4830.571777,6610.179199 4809.111816,6611.770508 4787.903320,6611.773926 
	C3447.920898,6612.003906 2107.938232,6612.019531 767.955811,6611.851562 
	C709.221680,6611.844238 652.889221,6599.701172 600.484558,6572.188965 
	C567.839417,6555.049805 538.785156,6533.368652 512.568420,6507.085938 
	C466.975708,6461.376465 437.876465,6406.973145 422.505920,6344.950684 
	C415.295746,6315.856445 411.956146,6286.077637 411.958191,6255.951172 
	C412.020721,5336.634277 412.009155,4417.316895 412.009155,3496.000000 
z"/>
<path fill="#FFFFFF" opacity="1.000000" stroke="none" 
	d="
M1567.440308,755.956055 
	C1551.777222,679.302368 1593.335205,587.840942 1680.733521,552.866638 
	C1704.496460,543.357483 1729.264648,539.564941 1754.984497,539.584229 
	C2052.290283,539.807556 2349.596191,539.726685 2646.902100,539.726624 
	C3032.199951,539.726501 3417.497803,539.763916 3802.795654,539.626587 
	C3824.307373,539.618896 3845.338867,541.729370 3865.847412,548.296509 
	C3940.803467,572.298767 3996.677979,642.702698 3994.616943,728.942871 
	C3992.540283,815.823547 3932.795166,888.971863 3844.293945,906.781616 
	C3830.025391,909.653015 3815.172363,909.757141 3800.562744,910.744202 
	C3793.263184,911.237488 3785.903320,910.838135 3778.570557,910.838135 
	C3108.632324,910.838501 2438.694092,910.829712 1768.755859,910.881531 
	C1749.379028,910.883057 1729.928833,910.438843 1711.144043,905.913940 
	C1638.907227,888.513123 1592.033081,843.896240 1570.689331,772.623169 
	C1570.115601,770.707214 1569.581787,768.779236 1569.215454,764.605591 
	C1568.747925,760.221558 1568.094116,758.088806 1567.440308,755.956055 
z"/>
<path fill="#FADBB9" opacity="1.000000" stroke="none" 
	d="
M1567.119141,756.749390 
	C1568.094116,758.088806 1568.747925,760.221558 1569.000488,763.138855 
	C1567.998901,761.796509 1567.398438,759.669678 1567.119141,756.749390 
z"/>
</svg>